<svg width="15" height="15" viewBox="0 0 15 15" fill="none" xmlns="http://www.w3.org/2000/svg">
<path d="M14.9833 7.49788C14.9886 7.31963 15.0356 4.77192 13.5278 3.11345C13.4608 2.9652 13.1431 2.36771 12.1176 1.63747C11.663 1.28483 11.1801 0.970191 10.6739 0.696738L10.6719 0.695738C10.6079 0.661489 9.35737 0 7.83963 0C7.72438 0 7.61038 0.00674991 7.49763 0.0144998V0.0124998C6.34039 -0.0127498 5.1909 0.284995 4.49815 0.59774C3.88366 0.875235 3.20141 1.34048 3.15216 1.37648C2.30117 1.85247 0.687433 3.76269 0.559684 4.77492C0.0439381 5.43416 -0.387059 8.39536 0.560684 10.1991C1.22518 12.7058 3.72666 13.9603 3.92566 14.0565C4.04666 14.1338 5.4099 14.9765 7.08463 14.9765C7.15488 14.9765 7.57963 15 7.73113 15C9.54137 15 12.2238 13.724 12.7853 12.7245C14.3281 11.5961 15.1278 8.68786 14.9833 7.49788ZM3.93941 11.2636C3.22216 10.1033 2.81342 8.58736 2.72592 8.23911C2.95292 7.89887 4.07266 6.2479 4.71065 5.75115C5.0719 5.81765 6.58039 6.09465 8.00313 6.35214C8.18188 6.81539 8.96612 8.85935 9.19062 9.64834C8.94312 9.94184 7.97088 11.0738 7.01364 11.9603C5.99739 11.9651 4.26891 11.3788 3.93941 11.2636ZM12.9558 3.14495C12.9528 3.25745 12.9261 3.65744 12.7346 4.11668C12.3543 3.92243 11.3986 3.50644 10.0886 3.43619C9.89036 3.14345 9.14437 2.12271 7.96613 1.41473C8.12738 1.09923 8.35187 0.714488 8.48312 0.59724C8.52562 0.58524 8.59162 0.57424 8.69212 0.57424C9.32387 0.57424 10.4154 0.987984 10.5104 1.02473C10.6111 1.07798 12.5731 2.13446 12.9558 3.14495ZM2.44317 8.00287C1.58743 7.85687 1.07868 7.59087 0.926681 7.50088C0.608434 6.34664 0.864682 5.09916 0.904182 4.92042C1.21818 4.35893 2.11217 2.9277 2.70192 2.65596C3.31316 2.53121 4.07541 2.68621 4.38591 2.76195C4.35666 3.1657 4.30041 4.29368 4.4674 5.47741C3.79091 6.0219 2.72017 7.58912 2.44317 8.00287ZM7.42113 0.382494C7.61313 0.396743 7.89488 0.438743 8.08788 0.495992C7.89538 0.751987 7.69813 1.13148 7.60488 1.31898C7.21238 1.38323 5.72164 1.66822 4.55215 2.42646C4.31641 2.36396 3.60441 2.19721 2.93017 2.25471C3.09716 1.93147 3.34666 1.69247 3.37341 1.66797C3.46616 1.60147 5.25165 0.352244 7.42113 0.379244V0.382494ZM12.1951 9.90559C11.9026 9.89359 10.7756 9.82934 9.53987 9.53909C9.30312 8.71361 8.52137 6.67814 8.34262 6.21515C8.91135 5.40452 9.48871 4.59999 10.0746 3.80169C11.4966 3.87969 12.4951 4.39843 12.6883 4.50668C13.5121 5.8314 13.6928 7.18438 13.7176 7.41038C13.2801 8.77185 12.4148 9.68859 12.1951 9.90559ZM0.413685 6.62964C0.434685 6.94613 0.485435 7.27938 0.577184 7.60887C0.494699 7.82238 0.437477 8.04481 0.406685 8.27161C0.354474 7.72541 0.356819 7.17537 0.413685 6.62964ZM2.82467 12.4693C3.20166 12.106 3.66641 11.7526 3.84666 11.6191C4.25416 11.7626 5.92764 12.3283 6.99439 12.3283C7.17613 12.572 7.77038 13.3353 8.49887 13.9188C8.04538 14.3625 7.39038 14.572 7.27463 14.6068C5.2429 14.6613 3.26416 13.5193 2.82467 12.4693ZM8.19038 14.6038C8.42087 14.4695 8.66112 14.2928 8.85987 14.069C9.18412 14.0243 10.5756 13.7848 11.8331 12.861C11.9161 12.87 12.0528 12.881 12.2056 12.8768C11.4511 13.616 9.61011 14.4418 8.19038 14.6038ZM12.0463 12.5098C12.4981 11.3328 12.4788 10.4453 12.4566 10.1618C12.7046 9.91883 13.5556 9.0121 14.0278 7.63362C14.2823 7.67612 14.4478 7.74087 14.5263 7.77712C14.5536 7.87712 14.5991 8.10812 14.5733 8.45836C14.3808 9.71909 13.7163 11.6083 12.5523 12.4435C12.4353 12.5033 12.2293 12.5163 12.0463 12.5098Z" fill="black"/>
</svg>
