<svg width="24" height="23" viewBox="0 0 24 23" fill="none" xmlns="http://www.w3.org/2000/svg">
<path d="M3.47246 23H19.5725C19.8775 23 20.17 22.8696 20.3856 22.6376C20.6013 22.4055 20.7225 22.0907 20.7225 21.7625V11.8628H23.0225L12.3367 0.362934C12.2299 0.247878 12.103 0.156603 11.9634 0.0943284C11.8238 0.0320535 11.6742 0 11.523 0C11.3719 0 11.2223 0.0320535 11.0827 0.0943284C10.943 0.156603 10.8162 0.247878 10.7094 0.362934L0.0224609 11.8628H2.32246V21.7625C2.32246 22.0907 2.44362 22.4055 2.65929 22.6376C2.87495 22.8696 3.16746 23 3.47246 23ZM13.8225 14.3377H9.22246V20.5251H4.62246V10.4124L11.5225 2.98761L18.4225 10.4124V20.5251H13.8225V14.3377Z" fill="#ADADAD" fill-opacity="0.5"/>
</svg>
