<svg xmlns="http://www.w3.org/2000/svg" xmlns:xlink="http://www.w3.org/1999/xlink" width="744.00166" height="336.72041" viewBox="0 0 744.00166 336.72041">
  <defs>
    <style>
      .cls-1 {
        fill: url(#linear-gradient);
      }

      .cls-2 {
        fill: #fff;
      }

      .cls-3 {
        fill: url(#linear-gradient-2);
      }

      .cls-10, .cls-11, .cls-12, .cls-13, .cls-14, .cls-4, .cls-5, .cls-6, .cls-7, .cls-8, .cls-9 {
        fill: #4d4d4d;
      }

      .cls-5 {
        font-size: 95.22367px;
      }

      .cls-10, .cls-11, .cls-12, .cls-13, .cls-14, .cls-5, .cls-6, .cls-7, .cls-8, .cls-9 {
        font-family: ForteMT, Forte;
      }

      .cls-6 {
        font-size: 81.92442px;
      }

      .cls-7 {
        font-size: 72.9426px;
      }

      .cls-8 {
        font-size: 48.20755px;
      }

      .cls-9 {
        font-size: 57.09731px;
      }

      .cls-10 {
        font-size: 69.14488px;
      }

      .cls-11 {
        font-size: 41.653px;
      }

      .cls-12 {
        font-size: 65.07706px;
      }

      .cls-13 {
        font-size: 56.91349px;
      }

      .cls-14 {
        font-size: 46.91656px;
      }
    </style>
    <linearGradient id="linear-gradient" y1="193.775" x2="617.00166" y2="193.775" gradientUnits="userSpaceOnUse">
      <stop offset="0" stop-color="#e85b20"/>
      <stop offset="0.15445" stop-color="#ea6d1f"/>
      <stop offset="0.46422" stop-color="#f19d1e"/>
      <stop offset="0.47207" stop-color="#f19e1e"/>
      <stop offset="1" stop-color="#edbc32"/>
    </linearGradient>
    <linearGradient id="linear-gradient-2" x1="452.74564" y1="181.71043" x2="744.00166" y2="181.71043" gradientUnits="userSpaceOnUse">
      <stop offset="0" stop-color="#edbc32"/>
      <stop offset="0.78646" stop-color="#ed7c25"/>
      <stop offset="1" stop-color="#ed6a21"/>
    </linearGradient>
  </defs>
  <g id="Layer_2" data-name="Layer 2">
    <g id="Layer_1-2" data-name="Layer 1">
      <g>
        <path class="cls-1" d="M168.00166,165.894c-21.37079-7.33038-31.59082-8.89294-37-9.55224-37.73261-4.59919-68.90577,7.0188-69,6.55224-.04905-.24279,8.562-2.54535,19-4a152.30456,152.30456,0,0,1,22.99771-1.50311,147.95585,147.95585,0,0,1,29.00229,3.50311c38.31161,8.33911,78.9999,29.4477,79,29.44776,33.79574,17.53277,46.11248,26.29126,72,41,44.40368,25.22924,83.63855,47.5216,134,59.55224a332.63762,332.63762,0,0,0,94.28137,8.4206,146.88006,146.88006,0,0,1-9.63819-11.85816q-8.33441.24528-16.67047.13959c-.00012,0-8.67553-.11585-16.6582-.5846-9.18658-.53942-36.21667-4.1065-55.31451-9.11743-33.1081-8.687-95.63575-35.68914-171-78A441.17014,441.17014,0,0,0,168.00166,165.894Zm288,29.3164a19.23277,19.23277,0,0,1,0-11.31641,265.41535,265.41535,0,0,1-53-2c-71.85321-9.99475-113.38749-46.41074-199.60453-77.56717a226.01494,226.01494,0,0,0-65.33477-13.24213,181.79219,181.79219,0,0,0-36.0607,1.8093,221.61343,221.61343,0,0,0-25,6c.00448.01739,3.49128-1.00626,8-2,17.78738-3.92038,33.47766-3.40723,44-3,.00009,0,5.80584.22418,10.89627.66928,40.78177,3.566,107.10363,36.33069,107.10373,36.33072,45.71762,22.58569,62.3554,34.12653,102.18408,48.74936a242.412,242.412,0,0,0,25.81592,8.25064A268.18983,268.18983,0,0,0,456.00166,195.21044Zm-370-90.31641c60.59918-10.51947,114.43481,19.3775,201.871,68.0899,43.739,24.36789,94.67627,58.88843,168.65332,58.4336,1.63788-.01007,3.266-.06915,4.90027-.09906a145.54541,145.54541,0,0,1-7.07087-28.02765,261.55978,261.55978,0,0,1-36.35369-.39679c-59.49982-4.80637-98.038-28.65823-134-47-84.77393-43.23737-130.86966-66.06808-184-59-59.01349,7.85074-100.30295,49.479-100,50C.278,147.36931,35.21221,113.71062,86.00166,104.894Zm-7,60c-34.09974,6.11621-56.366,26.36115-56,27,.413.721,26.2409-23.81433,63-24,23.03311-.11639,48.79757,9.33539,53,11,3.55825,1.40943,23.08664,9.68518,23.09085,9.687l.002.00092.00137.00061a519.9071,519.9071,0,0,1,50.26853,25.89789q3.18447,1.86923,5.65329,3.36584c2.63464,1.59137,4.56946,2.79114,4.98392,3.04773,83.18188,51.50391,117.99994,69.4477,118,69.44776,13.40246,6.9071,54.19354,27.00488,105,38,34.38372,7.441,94.27569,15.24054,171-2a143.96293,143.96293,0,0,1-68-8,139.12206,139.12206,0,0,1-28-14.44776,372.16849,372.16849,0,0,1-88.16364-4.94085c-4.60944-.81391-11.52563-2.12421-19.83636-4.05915-49.94361-11.62793-81.97077-29.91528-133-58.55224-65.63257-36.83222-100.76511-56.02869-145-68C123.91093,165.34033,103.66547,160.47028,79.00166,164.894ZM308.90733,75.37679C213.50068,54.57064,165.27161,46.68425,129.00166,52.894c-71.49189,12.24014-119.4699,56.13687-119,57,.3014.55362,6.33494-5.18335,13.20752-9.45905C37.264,91.6909,69.495,72.11,115.00166,66.894c7.6181-.8732,27.46255-2.70255,65,3,47.32467,7.18939,68.71347,18.13806,113,32,21.4046,6.69977,158.323,49.556,176,18a16.54142,16.54142,0,0,0,1.91235-8.76169,145.63762,145.63762,0,0,1,28.185-36.0849,147.44464,147.44464,0,0,1,11.983-10.03909,379.1302,379.1302,0,0,1-63.34174,22.12939C394.99983,100.11534,354.78584,85.38191,308.90733,75.37679Z"/>
        <g>
          <path class="cls-2" d="M702.68972,84.53844a142.4021,142.4021,0,1,0-7.0031,201.26348A142.40531,142.40531,0,0,0,702.68972,84.53844Z"/>
          <path class="cls-3" d="M704.86792,82.46268a145.57,145.57,0,1,0-7.16075,205.64459A145.72552,145.72552,0,0,0,704.86792,82.46268Zm-2.49059,2.31977C760.51069,147.05,741.68714,239.53062,695.383,285.61784c-36.0852,35.9162-83.48431,38.304-92.38134,38.59259-5.25226.17035-67.12214,1.195-108.62842-45.57495C449.65241,228.24327,439.87391,135.105,501.3625,77.79957A142.31529,142.31529,0,0,1,702.37733,84.78245Z"/>
          <path class="cls-4" d="M696.93364,201.22235s-21.98838-47.11331-27.33336-53.54714c-14.50216,2.11132-45.92033,7.266-59.68456,11.10328-1.55994,12.21292-7.35079,57.7926-7.78918,63.91061,7.558,4.80754,45.88738,23.06913,53.29046,25.8258C662.09979,242.499,693.59126,205.87922,696.93364,201.22235ZM696.7692,78.64079c-.42545-.42311-.84181-.84662-1.25265-1.26271a141.54051,141.54051,0,0,0-55.04189-31.82157L632.81,59.0368s31.82464,16.93467,46.62243,34.6785l33.60329,7.07584A112.71,112.71,0,0,0,696.7692,78.64079Zm-135.11477,40.4029s5.27591-37.41914,11.83063-49.45942c-6.39249-2.38048-36.09465-7.38945-42.71839-3.18943a150.49449,150.49449,0,0,0-40.2485,43.47075c3.80033,8.31267,10.05849,21.14018,15.80719,32.24738C518.5576,136.629,553.51436,121.14649,561.65443,119.04369ZM545.06881,246.49362s-31.26408-22.21654-47.22988-40.03927c-5.45418,3.33279-17.31978,11.32588-24.13188,20.97281,2.13374,7.23029,9.87555,29.65006,25.40966,50.07169,16.09281,7.60286,35.84208,14.65229,44.96727,13.605C543.77968,282.589,544.05089,269.17848,545.06881,246.49362Zm51.81883,68.03144a88.20062,88.20062,0,0,0,3.17249,9.53943,146.64095,146.64095,0,0,0,69.94153-18.85406q2.17556-1.4784,4.35113-2.95673,2.34466-2.26977,4.77832-4.55951c1.83-1.7221,3.86487-3.60937,6.00726-5.55a79.595,79.595,0,0,1-33.00775,1.8078C625.60694,311.888,596.88764,314.52506,596.88764,314.52506ZM730.63683,203.37864c-.02353,9.18333,1.36635,25.59233-7.04718,45.85355-.18812.45321-.37984.90842-.57927,1.36754a1.42909,1.42909,0,0,0,.15624.06869,142.75805,142.75805,0,0,0,15.839-92.569l-.98954-1.4187S740.46905,184.10587,730.63683,203.37864Z"/>
          <path class="cls-4" d="M505.09606,141.51962l.2163-.44749.45315-.205h0c12.2981-5.5,47.0882-20.93864,55.54817-23.14358l.66262-.16942.53175.42611h0c11.40432,9.16378,48.27509,39.7468,48.2806,39.749l.57539.47948-.09555.74157-1.35277-.17185,1.35277.17185h0c-1.5573,12.18774-7.3541,57.847-7.78144,63.83652l-.04492.60819-.47865.37031h0c-4.65254,3.57938-18.79971,9.41721-32.06742,14.58567h0c-13.22332,5.13379-25.36722,9.42612-25.37422,9.43l-.66638.23692-.57928-.41049h0c-.03305-.03192-29.43138-20.90315-45.94053-38.58841h0q-.77227-.82793-1.514-1.6545l-.32886-.36839-.01713-.49219h0c.03474-.10379-1.64336-43.58366,8.62044-64.9844ZM499.67758,182.164c-.754,11.75415-.54715,21.50373-.48852,23.75276h0c.37088.41124.75315.82457,1.14181,1.24124h0c8.081,8.66332,19.48086,18.24524,28.84032,25.63128h0c7.82892,6.1774,14.21531,10.81712,16.11148,12.18273h0c2.70969-.96778,13.26408-4.75439,24.62425-9.1618h0c12.64921-4.8887,26.45562-10.69382,30.911-13.8454h0c.712-8.02726,6.0112-49.76962,7.65052-62.61684h0c-4.64643-3.85016-36.067-29.89168-47.12355-38.80358h0c-8.8318,2.5738-41.76082,17.11776-54.00466,22.60583h0c-4.721,10.06811-6.82408,25.80639-7.66261,39.01378Z"/>
          <path class="cls-4" d="M695.68659,285.80192a141.97547,141.97547,0,0,0,32.17523-44.41827c5.1424-16.6904,4.11652-30.18717,4.13984-38.00071l.00177-1.28234-35.73737-2.28476-.44067.61206c-3.135,4.39392-33.915,40.19165-41.02539,46.80554-.09955.093-.19941.18072-.29425.26507l-.5539.4986.118.73138c.75287,4.60755-.03521,16.0423-1.06122,26.09522-1.01452,10.09027-2.22692,18.92615-2.22863,18.94373l-.18213,1.313,1.309.21936a79.784,79.784,0,0,0,28.48675-.6521c-.24243.2248-.48272.44892-.71905.66938-2.44086,2.27679-4.5954,4.33728-6.27094,5.95556q-1.701,1.96894-3.402,3.93781c3.67578-2.26776,8.12475-5.20508,13.00549-8.87665A163.40455,163.40455,0,0,0,695.68659,285.80192Zm-1.34956-2.96729c-3.1335,2.92289-5.73353,5.08711-7.54826,6.51675-.84332.66576-1.50783,1.16813-1.9815,1.51519l-.02015-.03672a78.74888,78.74888,0,0,1-31.12821,1.9822c.37485-2.84222,1.2793-9.9045,2.06489-17.71318.97114-9.73524,1.79252-20.48,1.13753-26.06429,7.53881-7.167,35.67024-39.84459,40.71909-46.40092l31.69565,2.02563c.07754,9.42494.96931,24.89972-6.90166,43.9436A173.09108,173.09108,0,0,1,694.337,282.83463Z"/>
          <path class="cls-4" d="M737.88532,158.88124l-1.168-1.67887-.05169-.31311c-2.03876-13.30975-8.21668-27.18307-13.90338-37.68048A176.42957,176.42957,0,0,0,711.929,101.59187l-.05511-.07346-.043-.08612-.00964-.01791c-.00007-.00009-1.80091-3.3443-4.04505-6.64267a115.17487,115.17487,0,0,0-13.77447-15.56128l2-1c1.8031,1.68143,4.24469,4.04608,7,7A142.88283,142.88283,0,0,1,726.189,118.44468a139.21264,139.21264,0,0,1,12.86084,39.96268Z"/>
          <path class="cls-4" d="M673.51635,125.5303c-2.563,11.7482-5.23008,21.77418-5.236,21.79436l-.17948.683.44859.539c2.42251,2.87122,9.37853,16.396,15.49883,28.91739,6.15773,12.568,11.63691,24.31261,11.6485,24.33721l.3424.73431,34.51033,2.20338.89436.06188.40926-.80183c7.27146-14.32143,7.95017-32.66668,7.77069-41.8108a142.17613,142.17613,0,0,0-7.178-29.09748,183.93153,183.93153,0,0,0-18.30553-33.09684l-.30919-.42734-35.88-7.55513.11993,1.7965C678.51094,100.27394,676.08161,113.81253,673.51635,125.5303Zm2.66238.58007c2.3738-10.92817,4.67452-23.21231,4.66614-30.70051l31.386,6.60875a182.97883,182.97883,0,0,1,10.53136,17.19018c5.68591,10.4995,11.86463,24.37071,13.89461,37.59527-.00139.0013.14771,1.6631.22388,4.50064.07537,2.83976.07653,6.82823-.22984,11.40827-.58609,8.90467-2.3419,20.03355-6.829,29.24717l-31.99466-2.044c-1.29014-2.75621-6.06673-12.90789-11.33124-23.6536-5.9189-12.04422-12.28962-24.63792-15.4076-28.88763C671.72045,144.96374,673.98777,136.16346,676.17873,126.11037Z"/>
          <path class="cls-4" d="M572.286,68.93523l.24112-.44522.46669-.17889h0c37.43435-14.36416,59.8424-10.6536,60.04228-10.61906l.21842.03873.19535.10358h0c.06139.04148,28.69423,15.238,44.54183,32.19743h0c.87029.933,1.702,1.87055,2.48569,2.81229l.28663.34159.02627.44482h0c.44872,7.19424-2.03723,20.63358-4.60737,32.48h0c-2.57943,11.81577-5.26042,21.90339-5.263,21.91716l-.23305.87038-.8896.12663h0c-14.45518,2.10083-45.91391,7.27064-59.51609,11.06837l-.6855.19075-.55146-.45381h0c-.04841-.04032-36.88416-30.59665-48.2452-39.72327l-.60357-.48668.10852-.7649h0c.04311-.09833,5.19555-37.33421,11.98206-49.91985ZM566.45,99.09448c-1.77172,8.99426-2.97635,16.94086-3.33436,19.37612h0c11.17085,9.005,42.59953,35.05094,47.126,38.80545h0c13.9604-3.77742,43.61417-8.661,58.26868-10.81954h0c.69918-2.68144,2.88812-11.21565,5.00679-20.92548h0c2.50921-11.45722,4.88489-24.6553,4.57828-31.28495h0q-1.00085-1.1739-2.09886-2.35316h0c-7.64891-8.20431-18.63122-16.15245-27.679-22.011h0c-8.17086-5.29285-14.73844-8.87891-15.94867-9.53216h0c-.46453-.0642-1.67852-.21248-3.66034-.30764h0c-7.75658-.36744-26.80545.17958-54.26025,10.63551h0c-3.03206,5.85717-5.93759,17.88892-7.99824,28.41683ZM668.281,147.32673l1.31924.35054-1.31924-.35054Z"/>
          <path class="cls-4" d="M543.70413,246.43377l.04051-.9145.86926-.31072h0c.02445-.00751,12.1173-4.28507,25.29368-9.399h0c13.13084-5.07621,27.51242-11.138,31.38058-14.19606l.7584-.58791.81192.514h0c7.30861,4.66754,45.84546,23.03547,53.03207,25.69758l.7468.2809.12516.7813h0c.82986,5.335-.02444,16.61934-1.03657,26.79882h0c-1.02439,10.14274-2.242,19.03026-2.244,19.03882l-.085.60482-.50352.34276h0c-26.85646,18.14706-55.76115,20.78215-55.88162,20.79975l-.19272.01814-.19286-.03919h0c-.09959-.0273-29.79548-5.82063-53.366-23.67192l-.51388-.39273-.02624-.64519h0c-.30517-8.59159-.03348-22.018.984-44.71972Zm1.366.06,1.36075.06209-1.36075-.06209Zm1.31881.9793c-.95775,21.551-1.22613,34.583-.964,42.93291h0c11.33163,8.47232,24.17581,14.16435,34.23388,17.73157h0c5.10216,1.81318,9.4889,3.07783,12.59,3.88839h0c2.51444.6568,4.16975,1.00976,4.7086,1.1221h0c.5305-.05478,2.13125-.23854,4.60427-.659h0c9.12691-1.54435,29.80082-6.29231,49.2988-19.32684h0c.29-2.15886,1.29052-9.80011,2.14817-18.33845h0c.974-9.53235,1.73295-20.309,1.16571-25.326h0c-8.82-3.51623-42.97568-19.79295-51.98832-25.17h0c-5.30413,3.60609-18.6929,9.11654-31.29031,14.023h0c-11.1364,4.32229-21.50492,8.05042-24.50676,9.12238Z"/>
          <path class="cls-4" d="M601.50423,324.0349l-.16748-.44945a89.5073,89.5073,0,0,1-3.10713-9.30181l-.16749-.91551-.91131-.18091c-.00475-.00157-1.79806-.35205-4.89984-1.16263-3.10419-.81168-7.48925-2.07585-12.59286-3.8878-10.21112-3.6181-23.29488-9.43181-34.75149-18.11743l-.43753-.33169-.54045.062c-8.34032,1.039-28.04684-5.81784-43.92527-13.33895-15.24779-20.13842-22.90043-42.28214-24.98457-49.36982l-.11376-.3747-.29525-.26214c-.28764-.24386-2.28388-2.34743-4.62154-4.857-3.2533-3.48772-7.35457-7.93392-9.55493-10.32655l-1.53089-1.65835A142.415,142.415,0,0,0,601.50423,324.0349ZM495.42436,277.87556a140.41932,140.41932,0,0,1-33.4629-60.97452c1.933,2.09452,4.12591,4.46192,6.03266,6.50606,2.06708,2.21324,3.723,3.9798,4.50794,4.754,2.30727,7.68489,10.07886,29.84442,25.52987,50.16332l.20352.2676.30122.13967c15.95449,7.48681,35.12527,14.51231,45.14717,13.777,21.15724,15.84557,47.04238,22.06327,52.07022,23.17121.48608,1.85961,1.49144,4.69917,2.34765,7.0302A140.647,140.647,0,0,1,495.42436,277.87556Z"/>
          <path class="cls-4" d="M465.41519,131.09508l1.12416.65613a110.12177,110.12177,0,0,1,9.56529-10.21711c6.878-6.41574,11.89049-9.07533,13.88765-9.9788a9.51114,9.51114,0,0,1,.95406-.39312l.47352-.15589.25906-.426a151.00076,151.00076,0,0,1,25.63031-31.3782,144.34942,144.34942,0,0,1,14.25249-11.69865l.51233-.36835.96457-11.93065a142.839,142.839,0,0,0-67.62344,75.89062Zm4.44742-7.20462a141.73708,141.73708,0,0,1,60.1862-65.53461l-.59,7.29914a147.53863,147.53863,0,0,0-14.01071,11.55189,153.82641,153.82641,0,0,0-25.84939,31.54782c-1.65455.66868-7.346,3.31258-15.35555,10.78381Q472.15492,121.4864,469.86261,123.89046Z"/>
          <path class="cls-4" d="M530.17962,56.72875l-.99232,12.2831,2.31029-1.46251c2.43656-1.71594,11.66043-1.75552,20.56151-.67144,8.94575,1.00588,18.01421,2.88,20.94934,3.983l.48388.183.48215-.18609C601.682,60.22825,620.907,59.67171,628.7056,60.0448a35.82815,35.82815,0,0,1,3.87861.33843l.94005.15807,8.27707-14.559A142.67618,142.67618,0,0,0,530.17962,56.72875ZM638.44118,46.373l-6.36346,11.19152c-4.63064-.52173-25.79612-1.93523-58.6155,10.56869-3.76628-1.263-12.34747-2.96618-21.0978-3.96591-7.78037-.81473-15.36784-1.25788-20.0592.12536l.6044-7.48408A141.31081,141.31081,0,0,1,638.44118,46.373Z"/>
          <path class="cls-4" d="M491.75913,109.29759l-.50871-1.1073-1.15987.37874c-.181.06071-6.3992,2.15634-15.84555,10.96777-2.23018,2.08028-4.642,4.53638-7.195,7.42526a142.97954,142.97954,0,0,0-6.998,87.87266c2.2751,2.4691,5.36431,5.80875,7.94287,8.57312,2.39039,2.55985,4.23983,4.52672,4.80758,5.03877l1.1393,1.01453.87963-1.24389a56.16182,56.16182,0,0,1,7.54992-8.46071,104.87933,104.87933,0,0,1,16.181-12.13726l.67946-.41349-.02783-.79864c.00294-.02544-.38741-10.82721.47645-24.24173.849-13.406,3.00422-29.41535,7.87325-39.45794l.29612-.61466-.31478-.60662C501.80128,130.403,495.54359,117.58033,491.75913,109.29759Zm-1.93078,2.33118c3.7755,8.1843,9.57287,20.04678,14.97588,30.51288-9.151,19.89079-8.48162,57.60887-8.34572,63.56233a107.3721,107.3721,0,0,0-15.948,12.05769,61.574,61.574,0,0,0-6.95689,7.57237c-.86174-.90023-2.15122-2.26753-3.56463-3.7863-3.13373-3.35953-7.05434-7.60707-9.303-10.05218a141.6535,141.6535,0,0,1,5.99813-79.91478,109.63133,109.63133,0,0,1,9.42237-10.04839C482.80132,115.28752,487.73138,112.60264,489.82835,111.62877Z"/>
        </g>
      </g>
      <text class="cls-5" transform="matrix(1.81394, -0.24415, 0.13339, 0.99106, 405.73836, 87.79225)">L</text>
      <text class="cls-6" transform="matrix(1.92961, 0.16444, -0.08492, 0.99639, 340.91493, 80.38992)">L</text>
      <text class="cls-7" transform="matrix(1.19821, 0.25912, -0.21137, 0.97741, 273.50258, 63.68042)">A</text>
      <text class="cls-8" transform="matrix(1.75968, 0.30677, -0.17174, 0.98514, 216.94207, 47.53289)">B</text>
      <text class="cls-9" transform="matrix(1.70191, 0.29669, -0.17174, 0.98514, 308.1257, 154.13699)">O</text>
      <text class="cls-10" transform="matrix(1.44869, 0.25255, -0.17174, 0.98514, 366.47449, 171.89083)">R</text>
      <text class="cls-11" transform="matrix(2.40144, 0.72795, -0.29009, 0.957, 260.90532, 126.19801)">F</text>
      <text class="cls-12" transform="matrix(2.35474, 0.7138, -0.2901, 0.957, 384.95806, 264.53459)">L</text>
      <text class="cls-13" transform="matrix(2.30975, 0.88206, -0.35676, 0.9342, 330.83297, 243.48735)">L</text>
      <text class="cls-14" transform="matrix(1.65673, 0.84411, -0.45397, 0.89102, 272.44039, 211.25709)">A</text>
    </g>
  </g>
</svg>
